<?xml version="1.0" encoding="UTF-8" standalone="no"?>
<!-- Created with Inkscape (http://www.inkscape.org/) -->

<svg
   xmlns:dc="http://purl.org/dc/elements/1.1/"
   xmlns:cc="http://creativecommons.org/ns#"
   xmlns:rdf="http://www.w3.org/1999/02/22-rdf-syntax-ns#"
   xmlns:svg="http://www.w3.org/2000/svg"
   xmlns="http://www.w3.org/2000/svg"
   xmlns:xlink="http://www.w3.org/1999/xlink"
   xmlns:sodipodi="http://sodipodi.sourceforge.net/DTD/sodipodi-0.dtd"
   xmlns:inkscape="http://www.inkscape.org/namespaces/inkscape"
   width="85.853241"
   height="127.53091"
   viewBox="0 0 22.715336 33.742554"
   version="1.1"
   id="svg8"
   inkscape:version="0.92.1 r15371"
   sodipodi:docname="humedad.svg">
  <defs
     id="defs2">
    <linearGradient
       inkscape:collect="always"
       id="linearGradient867">
      <stop
         style="stop-color:#3333ff;stop-opacity:1;"
         offset="0"
         id="stop863" />
      <stop
         style="stop-color:#3333ff;stop-opacity:0;"
         offset="1"
         id="stop865" />
    </linearGradient>
    <linearGradient
       inkscape:collect="always"
       xlink:href="#linearGradient867"
       id="gradiente_agua"
       x1="24.5"
       y1="105.1"
       x2="24.5"
       y2="105"
       gradientUnits="userSpaceOnUse" />
  </defs>
  <sodipodi:namedview
     id="base"
     pagecolor="#ffffff"
     bordercolor="#666666"
     borderopacity="1.0"
     inkscape:pageopacity="0.0"
     inkscape:pageshadow="2"
     inkscape:zoom="1.4"
     inkscape:cx="34.687436"
     inkscape:cy="150.13337"
     inkscape:document-units="mm"
     inkscape:current-layer="layer1"
     showgrid="false"
     inkscape:window-width="1366"
     inkscape:window-height="723"
     inkscape:window-x="0"
     inkscape:window-y="0"
     inkscape:window-maximized="1"
     fit-margin-top="0"
     fit-margin-left="0"
     fit-margin-right="0"
     fit-margin-bottom="0"
     units="px" />
  <metadata
     id="metadata5">
    <rdf:RDF>
      <cc:Work
         rdf:about="">
        <dc:format>image/svg+xml</dc:format>
        <dc:type
           rdf:resource="http://purl.org/dc/dcmitype/StillImage" />
        <dc:title />
      </cc:Work>
    </rdf:RDF>
  </metadata>
  <g
     inkscape:label="Capa 1"
     inkscape:groupmode="layer"
     id="layer1"
     transform="translate(-13.007399,-71.42147)">
    <path
       inkscape:connector-curvature="0"
       id="path4498-5"
       d="m 23.61154,105.09407 c -2.65687,-0.26247 -5.302113,-1.47602 -7.043505,-3.23134 -4.347242,-4.382003 -4.722065,-10.121314 -1.078854,-16.519457 1.045257,-1.835663 2.371461,-3.677365 4.159918,-5.776877 1.862157,-2.186041 3.345352,-4.690675 4.540355,-7.667197 0.111207,-0.276997 0.238117,-0.491657 0.28202,-0.477022 0.0439,0.01464 0.195377,0.349322 0.336607,0.743749 0.774159,2.16208 1.851788,4.257561 2.969307,5.773904 0.271598,0.368527 0.871813,1.092369 1.333813,1.608534 3.614415,4.038202 5.77578,7.958486 6.43061,11.663827 0.07002,0.396198 0.147246,1.242619 0.171616,1.880936 0.113224,2.9655 -0.807167,5.73531 -2.71968,8.184553 -0.657054,0.84146 -1.305045,1.43273 -2.308914,2.10684 -1.3943,0.93629 -3.084707,1.52443 -4.906108,1.70699 -0.959424,0.0962 -1.216647,0.0965 -2.167185,0.002 z m 4.722351,-2.80518 c 1.659051,-0.61556 3.354218,-2.319403 4.238803,-4.260493 0.361691,-0.79368 0.727863,-1.92716 0.92206,-2.85423 0.270662,-1.29211 0.211833,-1.28387 -0.610651,0.0856 -1.411718,2.35052 -3.047705,4.17345 -4.750311,5.293113 -0.953781,0.62722 -1.22663,0.86663 -1.312861,1.15198 -0.102086,0.33782 0.572364,0.88929 0.952681,0.77897 0.08804,-0.0255 0.34017,-0.11325 0.560279,-0.19492 z"
       style="fill:#4d4d4d;fill-opacity:1;stroke-width:0.08003984;opacity:0.15"
       sodipodi:nodetypes="cssccsscccccsccccssscccc" />
    <path
       inkscape:connector-curvature="0"
       id="agua"
       d="m 23.61154,105.09407 c -2.65687,-0.26247 -5.302113,-1.47602 -7.043505,-3.23134 -4.347242,-4.382006 -4.722065,-10.121315 -1.078854,-16.519458 1.045257,-1.835663 2.371461,-3.677365 4.159918,-5.776877 1.862157,-2.186041 3.345352,-4.690675 4.540355,-7.667197 0.111207,-0.276997 0.238117,-0.491657 0.28202,-0.477022 0.0439,0.01464 0.195377,0.349322 0.336607,0.743749 0.774159,2.16208 1.851788,4.257561 2.969307,5.773904 0.271598,0.368527 0.871813,1.092369 1.333813,1.608534 3.614415,4.038202 5.77578,7.958486 6.43061,11.663827 0.07002,0.396198 0.147246,1.242619 0.171616,1.880933 0.113224,2.965499 -0.807167,5.735311 -2.71968,8.184557 -0.657054,0.84146 -1.305045,1.43273 -2.308914,2.10684 -1.3943,0.93629 -3.084707,1.52443 -4.906108,1.70699 -0.959424,0.0962 -1.216647,0.0965 -2.167185,0.002 z m 4.722351,-2.80518 c 1.659051,-0.61556 3.354218,-2.319403 4.238803,-4.260495 0.361691,-0.793678 0.727863,-1.92716 0.92206,-2.854233 0.270662,-1.292108 0.211833,-1.283863 -0.610651,0.08558 -1.411718,2.350527 -3.047705,4.173456 -4.750311,5.293118 -0.953781,0.62722 -1.22663,0.86663 -1.312861,1.15198 -0.102086,0.33782 0.572364,0.88929 0.952681,0.77897 0.08804,-0.0255 0.34017,-0.11325 0.560279,-0.19492 z"
       style="fill:url(#gradiente_agua);stroke-width:0.08003984;fill-opacity:1"
       sodipodi:nodetypes="cssccsscccccsccccssscccc" />
  </g>
</svg>
