<?xml version="1.0" encoding="UTF-8" standalone="no"?>
<!-- Created with Inkscape (http://www.inkscape.org/) -->

<svg
   xmlns:dc="http://purl.org/dc/elements/1.1/"
   xmlns:cc="http://creativecommons.org/ns#"
   xmlns:rdf="http://www.w3.org/1999/02/22-rdf-syntax-ns#"
   xmlns:svg="http://www.w3.org/2000/svg"
   xmlns="http://www.w3.org/2000/svg"
   xmlns:sodipodi="http://sodipodi.sourceforge.net/DTD/sodipodi-0.dtd"
   xmlns:inkscape="http://www.inkscape.org/namespaces/inkscape"
   width="79.999992"
   height="128"
   viewBox="0 0 21.166664 33.866666"
   version="1.1"
   id="svg8"
   inkscape:version="0.92.1 r15371"
   sodipodi:docname="luminosidad.svg">
  <defs
     id="defs2" />
  <sodipodi:namedview
     id="base"
     pagecolor="#ffffff"
     bordercolor="#666666"
     borderopacity="1.0"
     inkscape:pageopacity="0.0"
     inkscape:pageshadow="2"
     inkscape:zoom="0.98994949"
     inkscape:cx="350.30391"
     inkscape:cy="-35.864408"
     inkscape:document-units="mm"
     inkscape:current-layer="layer1"
     showgrid="false"
     fit-margin-top="0"
     fit-margin-left="0"
     fit-margin-right="0"
     fit-margin-bottom="0"
     units="px"
     inkscape:window-width="1366"
     inkscape:window-height="723"
     inkscape:window-x="0"
     inkscape:window-y="0"
     inkscape:window-maximized="1" />
  <metadata
     id="metadata5">
    <rdf:RDF>
      <cc:Work
         rdf:about="">
        <dc:format>image/svg+xml</dc:format>
        <dc:type
           rdf:resource="http://purl.org/dc/dcmitype/StillImage" />
        <dc:title></dc:title>
      </cc:Work>
    </rdf:RDF>
  </metadata>
  <g
     inkscape:label="Capa 1"
     inkscape:groupmode="layer"
     id="layer1"
     transform="translate(-14.660661,-59.487011)">
    <path
       inkscape:connector-curvature="0"
       id="path4515"
       d="m 25.073725,84.340285 c -0.102271,-0.03112 -0.183676,-0.08454 -0.271183,-0.177992 -0.130101,-0.138934 -0.139378,-0.154987 -0.162204,-0.280702 -0.01188,-0.06544 -0.02959,-1.159627 -0.04088,-2.525313 l -0.01991,-2.409846 0.06888,-0.140485 c 0.09272,-0.189115 0.25554,-0.355416 0.382222,-0.390394 0.343744,-0.09491 0.729113,0.06322 0.811538,0.332993 0.06641,0.217356 0.08185,1.067304 0.05739,3.158861 -0.01664,1.422433 -0.02996,1.970801 -0.04958,2.040546 -0.03929,0.1397 -0.239467,0.334243 -0.389883,0.378918 -0.118673,0.03525 -0.294556,0.04135 -0.386387,0.01343 z m -7.080817,-2.941647 c -0.232852,-0.09191 -0.404476,-0.344099 -0.40388,-0.593477 1.84e-4,-0.07577 0.01449,-0.15665 0.03442,-0.194529 0.06096,-0.115895 0.306721,-0.385586 1.008703,-1.106919 1.295416,-1.331128 2.549904,-2.552331 2.69313,-2.621676 0.17716,-0.08577 0.452437,-0.03355 0.631591,0.119821 0.04923,0.04214 0.118135,0.134905 0.154958,0.208601 0.05533,0.110749 0.06629,0.15807 0.06623,0.285954 -6.8e-5,0.110877 -0.01109,0.171166 -0.03989,0.21808 -0.197948,0.322426 -3.252602,3.37258 -3.663496,3.6581 -0.113397,0.0788 -0.31983,0.08996 -0.481759,0.02603 z m 14.134036,0.03046 c -0.120499,-0.02699 -0.693776,-0.562699 -2.008405,-1.876814 -1.156399,-1.155947 -1.695304,-1.726421 -1.763347,-1.866644 -0.03637,-0.07496 -0.04331,-0.120396 -0.03473,-0.227357 0.0358,-0.44612 0.517242,-0.752426 0.87969,-0.559689 0.144794,0.077 1.103809,1.002137 2.246034,2.166699 1.00785,1.02756 1.249868,1.283338 1.380402,1.458876 l 0.09643,0.129676 -0.0096,0.162098 c -0.02075,0.350621 -0.265629,0.603412 -0.598072,0.617405 -0.07844,0.0033 -0.163223,0.0013 -0.188407,-0.0043 z m -7.279983,-3.641685 c -1.477247,-0.140501 -2.75348,-1.083408 -3.314939,-2.44914 -0.2141,-0.520795 -0.281943,-0.843225 -0.298611,-1.419192 -0.01671,-0.57739 0.02936,-0.920807 0.188588,-1.405801 0.448114,-1.364915 1.648244,-2.425317 3.0514,-2.696136 0.489742,-0.09453 0.846175,-0.09991 1.421645,-0.02146 1.00856,0.137458 2.095635,0.82386 2.663955,1.682073 0.193738,0.292561 0.471269,0.855349 0.56582,1.14739 0.1103,0.340693 0.12635,0.517336 0.113668,1.251032 -0.0095,0.547356 -0.0178,0.670606 -0.0578,0.854506 -0.100538,0.462212 -0.396583,1.074081 -0.732601,1.514141 -0.149286,0.195511 -0.510624,0.560869 -0.706238,0.7141 -0.803261,0.629212 -1.847636,0.928103 -2.894888,0.8285 z M 15.62939,74.419407 c -0.500777,-0.01293 -0.510299,-0.01406 -0.606886,-0.07066 -0.129572,-0.07594 -0.248945,-0.210897 -0.315859,-0.357076 -0.126902,-0.277229 0.01773,-0.628058 0.324596,-0.787351 0.08234,-0.04274 0.137612,-0.04892 0.56666,-0.06328 0.26148,-0.0088 1.387366,-0.01667 2.501968,-0.01759 l 2.02655,-0.0017 0.125823,0.06352 c 0.259341,0.130933 0.369271,0.278257 0.386412,0.517858 0.01997,0.279183 -0.09438,0.511095 -0.312417,0.633568 -0.10339,0.05808 -0.137658,0.06463 -0.432199,0.08267 -0.347747,0.0213 -3.440966,0.02133 -4.264648,4.3e-5 z m 14.911793,-6.62e-4 c -0.279174,-0.01654 -0.366112,-0.04846 -0.500998,-0.183899 -0.09733,-0.09772 -0.141449,-0.18729 -0.170981,-0.347062 -0.0554,-0.299751 0.06343,-0.52364 0.369439,-0.69602 l 0.140465,-0.07913 1.966506,0.0063 c 2.069509,0.0067 3.007311,0.02639 3.107027,0.06527 0.08557,0.03336 0.270813,0.212859 0.325339,0.31526 0.06382,0.119843 0.06621,0.414246 0.0044,0.540853 -0.0639,0.130897 -0.248881,0.30205 -0.360427,0.333489 -0.165335,0.0466 -4.222357,0.0839 -4.880779,0.04488 z m -9.173425,-3.721996 c -0.138934,-0.0485 -0.344344,-0.240107 -1.534611,-1.431518 -1.52249,-1.523948 -2.162303,-2.19332 -2.220405,-2.322987 -0.09094,-0.202942 -0.008,-0.517778 0.178403,-0.677372 0.173019,-0.148118 0.445862,-0.207345 0.619984,-0.134581 0.043,0.01796 0.147225,0.09449 0.231613,0.170052 0.300077,0.268685 1.643601,1.59223 2.387566,2.352057 0.767591,0.783961 1.062217,1.103 1.11771,1.210325 0.09603,0.185722 0.04696,0.423428 -0.126595,0.613357 -0.190444,0.208403 -0.44379,0.29393 -0.653665,0.220667 z m 7.408304,-0.01283 c -0.144101,-0.05137 -0.284778,-0.167455 -0.376874,-0.310982 -0.06333,-0.0987 -0.07401,-0.135392 -0.08044,-0.276405 -0.0073,-0.159399 -0.0057,-0.165204 0.0808,-0.294648 0.116423,-0.174275 1.02966,-1.12085 2.1663,-2.24538 1.067167,-1.055799 1.41756,-1.384856 1.520429,-1.427841 0.16212,-0.06775 0.423743,-0.01647 0.61204,0.119943 0.103455,0.07495 0.222196,0.303462 0.236836,0.455777 0.02228,0.231776 -0.09344,0.370153 -1.507217,1.802293 -1.343062,1.360511 -2.097674,2.094131 -2.209805,2.148328 -0.137017,0.06623 -0.306343,0.0773 -0.442069,0.0289 z m -3.754183,-1.55281 c -0.141445,-0.04343 -0.34286,-0.241245 -0.383838,-0.376983 -0.02326,-0.07703 -0.02879,-0.570964 -0.02879,-2.570046 v -2.474685 l 0.05621,-0.119857 c 0.07434,-0.158519 0.164323,-0.257639 0.304269,-0.335169 0.09896,-0.05483 0.137467,-0.06361 0.277015,-0.06318 0.126738,3.31e-4 0.182567,0.01131 0.256065,0.05016 0.117434,0.06205 0.27684,0.207438 0.320927,0.292707 0.05816,0.112488 0.06915,0.571139 0.07025,2.932688 l 0.0011,2.281866 -0.06702,0.101197 c -0.17809,0.268904 -0.49095,0.378075 -0.806143,0.2813 z"
       style="fill:#4d4d4d;stroke-width:0.02161146" />
  </g>
</svg>
