<?xml version="1.0" encoding="UTF-8" standalone="no"?>
<!-- Created with Inkscape (http://www.inkscape.org/) -->

<svg
   xmlns:dc="http://purl.org/dc/elements/1.1/"
   xmlns:cc="http://creativecommons.org/ns#"
   xmlns:rdf="http://www.w3.org/1999/02/22-rdf-syntax-ns#"
   xmlns:svg="http://www.w3.org/2000/svg"
   xmlns="http://www.w3.org/2000/svg"
   xmlns:sodipodi="http://sodipodi.sourceforge.net/DTD/sodipodi-0.dtd"
   xmlns:inkscape="http://www.inkscape.org/namespaces/inkscape"
   width="35.038147"
   height="127.6405"
   viewBox="0 0 9.2705095 33.771549"
   version="1.1"
   id="svg8"
   inkscape:version="0.92.1 r15371"
   sodipodi:docname="termometro.svg">
  <defs
     id="defs2" />
  <sodipodi:namedview
     id="base"
     pagecolor="#ffffff"
     bordercolor="#666666"
     borderopacity="1.0"
     inkscape:pageopacity="0.0"
     inkscape:pageshadow="2"
     inkscape:zoom="2.8"
     inkscape:cx="-101.29582"
     inkscape:cy="42.773284"
     inkscape:document-units="mm"
     inkscape:current-layer="layer1"
     showgrid="false"
     fit-margin-top="0"
     fit-margin-left="0"
     fit-margin-right="0"
     fit-margin-bottom="0"
     inkscape:window-width="1366"
     inkscape:window-height="723"
     inkscape:window-x="0"
     inkscape:window-y="0"
     inkscape:window-maximized="1"
     units="px" />
  <metadata
     id="metadata5">
    <rdf:RDF>
      <cc:Work
         rdf:about="">
        <dc:format>image/svg+xml</dc:format>
        <dc:type
           rdf:resource="http://purl.org/dc/dcmitype/StillImage" />
        <dc:title />
      </cc:Work>
    </rdf:RDF>
  </metadata>
  <g
     inkscape:label="Capa 1"
     inkscape:groupmode="layer"
     id="layer1"
     transform="translate(-74.218824,-67.215652)">
    <circle
       style="opacity:1;fill:#4d4d4d;fill-opacity:1;stroke:none;stroke-width:1;stroke-linecap:round;stroke-miterlimit:4;stroke-dasharray:none;stroke-dashoffset:0;stroke-opacity:1"
       id="bulbo"
       cx="78.85408"
       cy="96.173447"
       r="2.1073008" />
    <path
       inkscape:connector-curvature="0"
       id="path4498"
       d="M 77.311011,100.70925 C 74.137598,99.61129 73.188395,95.649304 75.4935,93.122913 l 0.737126,-0.807884 V 80.910116 69.505205 l 0.412363,-0.815496 c 0.322862,-0.638495 0.557581,-0.888848 1.081425,-1.153449 0.832771,-0.420644 1.378178,-0.426355 2.209745,-0.02311 0.450878,0.218636 0.774615,0.528425 1.059507,1.013865 l 0.410245,0.699034 0.04111,11.548459 0.04111,11.548463 0.733509,0.803929 c 3.284247,3.599521 -0.321553,9.16942 -4.908618,7.58237 z m 2.554311,-0.972903 c 2.735832,-0.82475 3.406948,-4.473028 1.151928,-6.262038 l -0.588016,-0.466496 -8.5e-4,-11.440286 c -5.38e-4,-7.339976 -0.05585,-11.638698 -0.154337,-11.993887 -0.176591,-0.636872 -0.908613,-1.323921 -1.410589,-1.323921 -0.469024,0 -1.126577,0.547903 -1.37644,1.146909 -0.169626,0.406661 -0.206754,2.571108 -0.206754,12.053427 v 11.557758 l -0.606247,0.480965 c -2.183944,1.732619 -1.619959,5.257653 0.994728,6.217265 0.756457,0.277624 1.349026,0.285802 2.196563,0.03032 z"
       style="fill:#4d4d4d;stroke-width:0.15007609"
       sodipodi:nodetypes="ccccccscscccccccccccscsccccc" />
    <rect
       style="opacity:1;fill:#4d4d4d;fill-opacity:1;stroke:none;stroke-width:0.89758486;stroke-linecap:round;stroke-miterlimit:4;stroke-dasharray:none;stroke-dashoffset:0;stroke-opacity:1"
       id="mercurio"
       width="1.552775"
       height="26.458334"
       x="78.07769"
       y="69.346512" />
  </g>
</svg>
